<svg xmlns="http://www.w3.org/2000/svg" width="87" height="89" fill="none"><path fill="#FFB937" d="M22.57 18.419 6.825 70.279a2 2 0 0 0 2.013 2.579l5.872-.294a2.036 2.036 0 0 0 1.773-1.261c9.67-23.316 31.448-40.637 50.829-43.637a2.055 2.055 0 0 0 1.615-1.29l2.539-6.664A2 2 0 0 0 69.597 17H24.484a2 2 0 0 0-1.914 1.419Z"/><path fill="#FE052F" d="M61.39 51.325h-17.5C40.69 48.525 46.5 42 50.5 39.5c3.5-1.5 11.69-2.575 14.89-.175 3.2 2.4-1.334 9-4 12ZM55 72.829H27c1-6.5 1.61-9.326 6.5-12 3.667-1 20.5-1 24-.5 2.887.412.167 9.5-2.5 12.5Z"/></svg>